<svg width="112" height="40" viewBox="0 0 112 40" fill="none" xmlns="http://www.w3.org/2000/svg">
<path fill-rule="evenodd" clip-rule="evenodd" d="M4 0H36C38.2 0 40 1.8 40 4V36C40 38.2 38.2 40 36 40H4C1.8 40 0 38.2 0 36V4C0 1.8 1.8 0 4 0ZM12 34V16H6V34H12ZM9 12.6C7 12.6 5.4 11 5.4 9C5.4 7 7 5.4 9 5.4C11 5.4 12.6 7 12.6 9C12.6 11 11 12.6 9 12.6ZM28 34H34V22.6C34 18.8 30.8 15.6 27 15.6C25.2 15.6 23 16.8 22 18.4V16H16V34H22V23.4C22 21.8001 23.4 20.4 25 20.4C26.6 20.4 28 21.8001 28 23.4V34Z" fill="white"/>
<path d="M112 8.26167C110.528 8.915 108.947 9.355 107.287 9.55333C108.982 8.53833 110.283 6.93 110.895 5.01333C109.31 5.95333 107.553 6.63667 105.683 7.005C104.188 5.41 102.053 4.41333 99.6933 4.41333C94.395 4.41333 90.5017 9.35667 91.6983 14.4883C84.88 14.1467 78.8333 10.88 74.785 5.915C72.635 9.60333 73.67 14.4283 77.3233 16.8717C75.98 16.8283 74.7133 16.46 73.6083 15.845C73.5183 19.6467 76.2433 23.2033 80.19 23.995C79.035 24.3083 77.77 24.3817 76.4833 24.135C77.5267 27.395 80.5567 29.7667 84.15 29.8333C80.7 32.5383 76.3533 33.7467 72 33.2333C75.6317 35.5617 79.9467 36.92 84.58 36.92C99.8167 36.92 108.425 24.0517 107.905 12.51C109.508 11.3517 110.9 9.90667 112 8.26167Z" fill="white"/>
</svg>
